 <svg  version="1.0" xmlns="http://www.w3.org/2000/svg"  width="300.000000pt" height="358.000000pt" viewBox="0 0 300.000000 358.000000"  preserveAspectRatio="xMidYMid meet">  <g transform="translate(0.000000,358.000000) scale(0.050000,-0.050000)" fill="#ffffff" stroke="none"> <path d="M3441 5969 c263 -569 488 -1062 500 -1097 21 -58 3 -102 -301 -720 -178 -361 -316 -664 -306 -673 9 -9 353 -147 765 -308 413 -160 760 -303 773 -316 12 -14 173 -353 357 -755 184 -401 342 -737 351 -747 22 -23 189 252 247 407 266 711 -102 1496 -1010 2156 l-154 111 68 106 c490 766 388 1619 -271 2267 -341 336 -785 526 -1374 590 l-124 14 479 -1035z"/> <path d="M220 6010 l0 -969 95 37 c52 21 232 93 400 160 373 149 358 149 272 -3 -316 -558 -254 -900 229 -1280 l117 -92 467 984 c558 1172 679 1426 871 1828 l146 305 -1298 0 -1299 0 0 -970z"/> <path d="M2281 4868 c-334 -703 -611 -1284 -615 -1291 -3 -8 212 -124 479 -258 267 -134 686 -347 931 -473 425 -220 491 -242 515 -180 8 20 -669 1518 -699 1549 -3 2 -98 -191 -211 -430 -114 -239 -209 -437 -211 -441 -11 -13 -368 168 -369 188 -1 23 102 245 416 896 101 208 183 380 183 382 0 3 90 191 200 419 233 482 225 423 93 699 l-104 219 -608 -1279z"/> <path d="M473 4055 c131 -442 376 -692 1177 -1200 1350 -856 2381 -1440 3170 -1795 520 -234 534 -230 373 104 l-103 214 -410 204 c-225 111 -805 396 -1289 632 -2096 1022 -2548 1310 -2860 1821 -93 152 -97 153 -58 20z"/> <path d="M211 3407 c-49 -300 118 -531 829 -1145 815 -703 2635 -1828 3061 -1892 158 -23 514 84 625 189 9 8 -288 166 -660 349 -1954 967 -2956 1621 -3682 2403 l-160 173 -13 -77z"/> <path d="M796 1737 c-12 -37 -123 -265 -245 -507 -247 -487 -304 -638 -334 -886 -23 -184 -20 -194 48 -177 217 54 495 485 745 1152 l94 249 -67 56 c-37 32 -101 85 -142 118 l-76 62 -23 -67z"/> <path d="M1235 726 c-140 -293 -252 -536 -248 -540 4 -3 531 -4 1171 -1 l1164 5 -910 535 c-500 294 -912 535 -916 535 -3 0 -121 -240 -261 -534z"/> </g> </svg> 